<svg width="512" height="512" version="1.1" xmlns="http://www.w3.org/2000/svg" desc="Created with imagetracer.js version 1.2.6" ><path fill="rgb(0,0,0)" stroke="rgb(0,0,0)" stroke-width="1" opacity="0.7803921568627451" d="M 390.5 0 L 389.5 2 L 390.5 0 Z " /><path fill="rgb(0,0,0)" stroke="rgb(0,0,0)" stroke-width="1" opacity="0.7803921568627451" d="M 386.5 7 L 385.5 9 L 386.5 7 Z " /><path fill="rgb(0,0,0)" stroke="rgb(0,0,0)" stroke-width="1" opacity="0.7803921568627451" d="M 394.5 8 L 395.5 10 L 394.5 8 Z " /><path fill="rgb(0,0,0)" stroke="rgb(0,0,0)" stroke-width="1" opacity="0.7803921568627451" d="M 380.5 18 L 379.5 20 L 380.5 18 Z " /><path fill="rgb(0,0,0)" stroke="rgb(0,0,0)" stroke-width="1" opacity="0.7803921568627451" d="M 400.5 19 L 401.5 21 L 400.5 19 Z " /><path fill="rgb(0,0,0)" stroke="rgb(0,0,0)" stroke-width="1" opacity="0.7803921568627451" d="M 374.5 29 L 373.5 31 L 374.5 29 Z " /><path fill="rgb(0,0,0)" stroke="rgb(0,0,0)" stroke-width="1" opacity="0.7803921568627451" d="M 411.5 39 L 412.5 41 L 411.5 39 Z " /><path fill="rgb(0,0,0)" stroke="rgb(0,0,0)" stroke-width="1" opacity="0.7803921568627451" d="M 368.5 40 L 367.5 42 L 368.5 40 Z " /><path fill="rgb(0,0,0)" stroke="rgb(0,0,0)" stroke-width="1" opacity="0.7803921568627451" d="M 417.5 50 L 418.5 52 L 417.5 50 Z " /><path fill="rgb(0,0,0)" stroke="rgb(0,0,0)" stroke-width="1" opacity="0.7803921568627451" d="M 362.5 51 L 361.5 53 L 362.5 51 Z " /><path fill="rgb(0,0,0)" stroke="rgb(0,0,0)" stroke-width="1" opacity="0.7803921568627451" d="M 357.5 60 L 356.5 62 L 357.5 60 Z " /><path fill="rgb(0,0,0)" stroke="rgb(0,0,0)" stroke-width="1" opacity="0.7803921568627451" d="M 423.5 61 L 424.5 63 L 423.5 61 Z " /><path fill="rgb(0,0,0)" stroke="rgb(0,0,0)" stroke-width="1" opacity="0.7803921568627451" d="M 390.5 62 L 389.5 64 L 390.5 62 Z " /><path fill="rgb(0,0,0)" stroke="rgb(0,0,0)" stroke-width="1" opacity="0.7803921568627451" d="M 393.5 68 L 396 71.5 L 394 70.5 L 393.5 68 Z " /><path fill="rgb(0,0,0)" stroke="rgb(0,0,0)" stroke-width="1" opacity="0.7803921568627451" d="M 386.5 69 L 385.5 71 L 386.5 69 Z " /><path fill="rgb(0,0,0)" stroke="rgb(0,0,0)" stroke-width="1" opacity="0.7803921568627451" d="M 351.5 71 L 350.5 73 L 351.5 71 Z " /><path fill="rgb(0,0,0)" stroke="rgb(0,0,0)" stroke-width="1" opacity="0.7803921568627451" d="M 429.5 72 L 430.5 74 L 429.5 72 Z " /><path fill="rgb(0,0,0)" stroke="rgb(0,0,0)" stroke-width="1" opacity="0.7803921568627451" d="M 347.5 78 L 346.5 80 L 347.5 78 Z " /><path fill="rgb(0,0,0)" stroke="rgb(0,0,0)" stroke-width="1" opacity="0.7803921568627451" d="M 399.5 79 L 400.5 81 L 399.5 79 Z " /><path fill="rgb(0,0,0)" stroke="rgb(0,0,0)" stroke-width="1" opacity="0.7803921568627451" d="M 380.5 80 L 379.5 82 L 380.5 80 Z " /><path fill="rgb(0,0,0)" stroke="rgb(0,0,0)" stroke-width="1" opacity="0.7803921568627451" d="M 438.5 81 L 442 83.5 L 440.5 83 L 438.5 81 Z " /><path fill="rgb(0,0,0)" stroke="rgb(0,0,0)" stroke-width="1" opacity="0.7803921568627451" d="M 336.5 84 L 335.5 86 L 336.5 84 Z " /><path fill="rgb(0,0,0)" stroke="rgb(0,0,0)" stroke-width="1" opacity="0.7803921568627451" d="M 449.5 87 L 450.5 89 L 449.5 87 Z " /><path fill="rgb(0,0,0)" stroke="rgb(0,0,0)" stroke-width="1" opacity="0.7803921568627451" d="M 325.5 90 L 324.5 92 L 325.5 90 Z " /><path fill="rgb(0,0,0)" stroke="rgb(0,0,0)" stroke-width="1" opacity="0.7803921568627451" d="M 405.5 90 L 406.5 92 L 405.5 90 Z " /><path fill="rgb(0,0,0)" stroke="rgb(0,0,0)" stroke-width="1" opacity="0.7803921568627451" d="M 460.5 93 L 461.5 95 L 460.5 93 Z " /><path fill="rgb(0,0,0)" stroke="rgb(0,0,0)" stroke-width="1" opacity="0.7803921568627451" d="M 314.5 96 L 313.5 98 L 314.5 96 Z " /><path fill="rgb(0,0,0)" stroke="rgb(0,0,0)" stroke-width="1" opacity="0.7803921568627451" d="M 471.5 99 L 472.5 101 L 471.5 99 Z " /><path fill="rgb(0,0,0)" stroke="rgb(0,0,0)" stroke-width="1" opacity="0.7803921568627451" d="M 367.5 101 L 366.5 103 L 364.5 104 L 365.5 102 L 367.5 101 Z " /><path fill="rgb(0,0,0)" stroke="rgb(0,0,0)" stroke-width="1" opacity="0.7803921568627451" d="M 420.5 105 L 421.5 107 L 420.5 105 Z " /><path fill="rgb(0,0,0)" stroke="rgb(0,0,0)" stroke-width="1" opacity="0.7803921568627451" d="M 482.5 105 L 483.5 107 L 482.5 105 Z " /><path fill="rgb(0,0,0)" stroke="rgb(0,0,0)" stroke-width="1" opacity="0.7803921568627451" d="M 294.5 107 L 293.5 109 L 294.5 107 Z " /><path fill="rgb(0,0,0)" stroke="rgb(0,0,0)" stroke-width="1" opacity="0.7803921568627451" d="M 356.5 107 L 355.5 109 L 353.5 110 L 354.5 108 L 356.5 107 Z " /><path fill="rgb(0,0,0)" stroke="rgb(0,0,0)" stroke-width="1" opacity="0.7803921568627451" d="M 491.5 110 L 495 112.5 L 493.5 112 L 491.5 110 Z " /><path fill="rgb(0,0,0)" stroke="rgb(0,0,0)" stroke-width="1" opacity="0.7803921568627451" d="M 431.5 111 L 432.5 113 L 431.5 111 Z " /><path fill="rgb(0,0,0)" stroke="rgb(0,0,0)" stroke-width="1" opacity="0.7803921568627451" d="M 283.5 113 L 282.5 115 L 283.5 113 Z " /><path fill="rgb(0,0,0)" stroke="rgb(0,0,0)" stroke-width="1" opacity="0.7803921568627451" d="M 345.5 113 L 344.5 115 L 345.5 113 Z " /><path fill="rgb(0,0,0)" stroke="rgb(0,0,0)" stroke-width="1" opacity="0.7803921568627451" d="M 502.5 116 L 506 118.5 L 504.5 118 L 502.5 116 Z " /><path fill="rgb(0,0,0)" stroke="rgb(0,0,0)" stroke-width="1" opacity="0.7803921568627451" d="M 272.5 119 L 271.5 121 L 272.5 119 Z " /><path fill="rgb(0,0,0)" stroke="rgb(0,0,0)" stroke-width="1" opacity="0.7803921568627451" d="M 334.5 119 L 333.5 121 L 334.5 119 Z " /><path fill="rgb(0,0,0)" stroke="rgb(0,0,0)" stroke-width="1" opacity="0.7803921568627451" d="M 269.5 121 L 271.5 124 L 269.5 121 Z " /><path fill="rgb(0,0,0)" stroke="rgb(0,0,0)" stroke-width="1" opacity="0.7803921568627451" d="M 331.5 121 L 333.5 124 L 331.5 121 Z " /><path fill="rgb(0,0,0)" stroke="rgb(0,0,0)" stroke-width="1" opacity="0.7803921568627451" d="M 449.5 121 L 448.5 123 L 449.5 121 Z " /><path fill="rgb(0,0,0)" stroke="rgb(0,0,0)" stroke-width="1" opacity="0.7803921568627451" d="M 511.5 121 L 510.5 123 L 511.5 121 Z " /><path fill="rgb(0,0,0)" stroke="rgb(0,0,0)" stroke-width="1" opacity="0.7803921568627451" d="M 442.5 125 L 441.5 127 L 442.5 125 Z " /><path fill="rgb(0,0,0)" stroke="rgb(0,0,0)" stroke-width="1" opacity="0.7803921568627451" d="M 504.5 125 L 503.5 127 L 504.5 125 Z " /><path fill="rgb(0,0,0)" stroke="rgb(0,0,0)" stroke-width="1" opacity="0.7803921568627451" d="M 281.5 128 L 282.5 130 L 281.5 128 Z " /><path fill="rgb(0,0,0)" stroke="rgb(0,0,0)" stroke-width="1" opacity="0.7803921568627451" d="M 343.5 128 L 344.5 130 L 343.5 128 Z " /><path fill="rgb(0,0,0)" stroke="rgb(0,0,0)" stroke-width="1" opacity="0.7803921568627451" d="M 493.5 131 L 492.5 133 L 493.5 131 Z " /><path fill="rgb(0,0,0)" stroke="rgb(0,0,0)" stroke-width="1" opacity="0.7803921568627451" d="M 292.5 134 L 293.5 136 L 292.5 134 Z " /><path fill="rgb(0,0,0)" stroke="rgb(0,0,0)" stroke-width="1" opacity="0.7803921568627451" d="M 354.5 134 L 355.5 136 L 354.5 134 Z " /><path fill="rgb(0,0,0)" stroke="rgb(0,0,0)" stroke-width="1" opacity="0.7803921568627451" d="M 422.5 136 L 421.5 138 L 422.5 136 Z " /><path fill="rgb(0,0,0)" stroke="rgb(0,0,0)" stroke-width="1" opacity="0.7803921568627451" d="M 484.5 136 L 483.5 138 L 481.5 139 L 482.5 137 L 484.5 136 Z " /><path fill="rgb(0,0,0)" stroke="rgb(0,0,0)" stroke-width="1" opacity="0.7803921568627451" d="M 363.5 139 L 367 141.5 L 365.5 141 L 363.5 139 Z " /><path fill="rgb(0,0,0)" stroke="rgb(0,0,0)" stroke-width="1" opacity="0.7803921568627451" d="M 303.5 140 L 304.5 142 L 303.5 140 Z " /><path fill="rgb(0,0,0)" stroke="rgb(0,0,0)" stroke-width="1" opacity="0.7803921568627451" d="M 368.5 142 L 369.5 144 L 368.5 142 Z " /><path fill="rgb(0,0,0)" stroke="rgb(0,0,0)" stroke-width="1" opacity="0.7803921568627451" d="M 473.5 142 L 472.5 144 L 470.5 145 L 471.5 143 L 473.5 142 Z " /><path fill="rgb(0,0,0)" stroke="rgb(0,0,0)" stroke-width="1" opacity="0.7803921568627451" d="M 314.5 146 L 315.5 148 L 314.5 146 Z " /><path fill="rgb(0,0,0)" stroke="rgb(0,0,0)" stroke-width="1" opacity="0.7803921568627451" d="M 409.5 146 L 408.5 148 L 409.5 146 Z " /><path fill="rgb(0,0,0)" stroke="rgb(0,0,0)" stroke-width="1" opacity="0.7803921568627451" d="M 462.5 148 L 461.5 150 L 462.5 148 Z " /><path fill="rgb(0,0,0)" stroke="rgb(0,0,0)" stroke-width="1" opacity="0.7803921568627451" d="M 451.5 154 L 450.5 156 L 451.5 154 Z " /><path fill="rgb(0,0,0)" stroke="rgb(0,0,0)" stroke-width="1" opacity="0.7803921568627451" d="M 376.5 156 L 377.5 158 L 376.5 156 Z " /><path fill="rgb(0,0,0)" stroke="rgb(0,0,0)" stroke-width="1" opacity="0.7803921568627451" d="M 334.5 157 L 335.5 159 L 334.5 157 Z " /><path fill="rgb(0,0,0)" stroke="rgb(0,0,0)" stroke-width="1" opacity="0.7803921568627451" d="M 403.5 157 L 402.5 159 L 403.5 157 Z " /><path fill="rgb(0,0,0)" stroke="rgb(0,0,0)" stroke-width="1" opacity="0.7803921568627451" d="M 440.5 160 L 439.5 162 L 440.5 160 Z " /><path fill="rgb(0,0,0)" stroke="rgb(0,0,0)" stroke-width="1" opacity="0.7803921568627451" d="M 345.5 163 L 348.5 167 L 345.5 163 Z " /><path fill="rgb(0,0,0)" stroke="rgb(0,0,0)" stroke-width="1" opacity="0.7803921568627451" d="M 433.5 164 L 432.5 166 L 433.5 164 Z " /><path fill="rgb(0,0,0)" stroke="rgb(0,0,0)" stroke-width="1" opacity="0.7803921568627451" d="M 382.5 167 L 383.5 169 L 382.5 167 Z " /><path fill="rgb(0,0,0)" stroke="rgb(0,0,0)" stroke-width="1" opacity="0.7803921568627451" d="M 397.5 168 L 396.5 170 L 397.5 168 Z " /><path fill="rgb(0,0,0)" stroke="rgb(0,0,0)" stroke-width="1" opacity="0.7803921568627451" d="M 99.5 173 L 111 173.5 L 99.5 174 L 99.5 173 Z " /><path fill="rgb(0,0,0)" stroke="rgb(0,0,0)" stroke-width="1" opacity="0.7803921568627451" d="M 89.5 174 L 93 174.5 L 89.5 175 L 89.5 174 Z " /><path fill="rgb(0,0,0)" stroke="rgb(0,0,0)" stroke-width="1" opacity="0.7803921568627451" d="M 117.5 174 L 121 174.5 L 117.5 175 L 117.5 174 Z " /><path fill="rgb(0,0,0)" stroke="rgb(0,0,0)" stroke-width="1" opacity="0.7803921568627451" d="M 427.5 175 L 426.5 177 L 427.5 175 Z " /><path fill="rgb(0,0,0)" stroke="rgb(0,0,0)" stroke-width="1" opacity="0.7803921568627451" d="M 353.5 176 L 354.5 178 L 353.5 176 Z " /><path fill="rgb(0,0,0)" stroke="rgb(0,0,0)" stroke-width="1" opacity="0.7803921568627451" d="M 392.5 177 L 392 178.5 L 390.5 181 L 388.5 178 L 391 179.5 L 392.5 177 Z " /><path fill="rgb(0,0,0)" stroke="rgb(0,0,0)" stroke-width="1" opacity="0.7803921568627451" d="M 358.5 185 L 361 188.5 L 359 187.5 L 358.5 185 Z " /><path fill="rgb(0,0,0)" stroke="rgb(0,0,0)" stroke-width="1" opacity="0.7803921568627451" d="M 421.5 186 L 420.5 188 L 421.5 186 Z " /><path fill="rgb(0,0,0)" stroke="rgb(0,0,0)" stroke-width="1" opacity="0.7803921568627451" d="M 52.5 187 L 51.5 189 L 52.5 187 Z " /><path fill="rgb(0,0,0)" stroke="rgb(0,0,0)" stroke-width="1" opacity="0.7803921568627451" d="M 157.5 187 L 158.5 189 L 157.5 187 Z " /><path fill="rgb(0,0,0)" stroke="rgb(0,0,0)" stroke-width="1" opacity="0.7803921568627451" d="M 236 188 L 326 188.5 L 237 189 L 236.5 512 L 236 188 Z " /><path fill="rgb(0,0,0)" stroke="rgb(0,0,0)" stroke-width="1" opacity="0.7803921568627451" d="M 162.5 190 L 163.5 192 L 162.5 190 Z " /><path fill="rgb(0,0,0)" stroke="rgb(0,0,0)" stroke-width="1" opacity="0.7803921568627451" d="M 43.5 193 L 42.5 195 L 43.5 193 Z " /><path fill="rgb(0,0,0)" stroke="rgb(0,0,0)" stroke-width="1" opacity="0.7803921568627451" d="M 166.5 193 L 167.5 195 L 166.5 193 Z " /><path fill="rgb(0,0,0)" stroke="rgb(0,0,0)" stroke-width="1" opacity="0.7803921568627451" d="M 39.5 196 L 37.5 199 L 39.5 196 Z " /><path fill="rgb(0,0,0)" stroke="rgb(0,0,0)" stroke-width="1" opacity="0.7803921568627451" d="M 170.5 196 L 172.5 199 L 170.5 196 Z " /><path fill="rgb(0,0,0)" stroke="rgb(0,0,0)" stroke-width="1" opacity="0.7803921568627451" d="M 364.5 196 L 365.5 198 L 364.5 196 Z " /><path fill="rgb(0,0,0)" stroke="rgb(0,0,0)" stroke-width="1" opacity="0.7803921568627451" d="M 415.5 197 L 414.5 199 L 415.5 197 Z " /><path fill="rgb(0,0,0)" stroke="rgb(0,0,0)" stroke-width="1" opacity="0.7803921568627451" d="M 32.5 202 L 28.5 207 L 32.5 202 Z " /><path fill="rgb(0,0,0)" stroke="rgb(0,0,0)" stroke-width="1" opacity="0.7803921568627451" d="M 177.5 202 L 181.5 207 L 177.5 202 Z " /><path fill="rgb(0,0,0)" stroke="rgb(0,0,0)" stroke-width="1" opacity="0.7803921568627451" d="M 97.5 203 L 113 203.5 L 97.5 204 L 97.5 203 Z " /><path fill="rgb(0,0,0)" stroke="rgb(0,0,0)" stroke-width="1" opacity="0.7803921568627451" d="M 90.5 204 L 93 204.5 L 90.5 205 L 90.5 204 Z " /><path fill="rgb(0,0,0)" stroke="rgb(0,0,0)" stroke-width="1" opacity="0.7803921568627451" d="M 117.5 204 L 120 204.5 L 117.5 205 L 117.5 204 Z " /><path fill="rgb(0,0,0)" stroke="rgb(0,0,0)" stroke-width="1" opacity="0.7803921568627451" d="M 370.5 207 L 371.5 209 L 370.5 207 Z " /><path fill="rgb(0,0,0)" stroke="rgb(0,0,0)" stroke-width="1" opacity="0.7803921568627451" d="M 25.5 210 L 22.5 214 L 25.5 210 Z " /><path fill="rgb(0,0,0)" stroke="rgb(0,0,0)" stroke-width="1" opacity="0.7803921568627451" d="M 184.5 210 L 187.5 214 L 184.5 210 Z " /><path fill="rgb(0,0,0)" stroke="rgb(0,0,0)" stroke-width="1" opacity="0.7803921568627451" d="M 68.5 212 L 67.5 214 L 68.5 212 Z " /><path fill="rgb(0,0,0)" stroke="rgb(0,0,0)" stroke-width="1" opacity="0.7803921568627451" d="M 141.5 212 L 142.5 214 L 141.5 212 Z " /><path fill="rgb(0,0,0)" stroke="rgb(0,0,0)" stroke-width="1" opacity="0.7803921568627451" d="M 20.5 216 L 19.5 218 L 20.5 216 Z " /><path fill="rgb(0,0,0)" stroke="rgb(0,0,0)" stroke-width="1" opacity="0.7803921568627451" d="M 62.5 216 L 61.5 218 L 62.5 216 Z " /><path fill="rgb(0,0,0)" stroke="rgb(0,0,0)" stroke-width="1" opacity="0.7803921568627451" d="M 189.5 216 L 190.5 218 L 189.5 216 Z " /><path fill="rgb(0,0,0)" stroke="rgb(0,0,0)" stroke-width="1" opacity="0.7803921568627451" d="M 59.5 218 L 57.5 221 L 59.5 218 Z " /><path fill="rgb(0,0,0)" stroke="rgb(0,0,0)" stroke-width="1" opacity="0.7803921568627451" d="M 150.5 218 L 152.5 221 L 150.5 218 Z " /><path fill="rgb(0,0,0)" stroke="rgb(0,0,0)" stroke-width="1" opacity="0.7803921568627451" d="M 266.5 218 L 296.5 218 L 297 218.5 L 297 481.5 L 296 481.5 L 296 219.5 L 295.5 219 L 266.5 219 L 266.5 218 Z " /><path fill="rgb(0,0,0)" stroke="rgb(0,0,0)" stroke-width="1" opacity="0.7803921568627451" d="M 376.5 218 L 377.5 220 L 376.5 218 Z " /><path fill="rgb(0,0,0)" stroke="rgb(0,0,0)" stroke-width="1" opacity="0.7803921568627451" d="M 18.5 219 L 17.5 221 L 18.5 219 Z " /><path fill="rgb(0,0,0)" stroke="rgb(0,0,0)" stroke-width="1" opacity="0.7803921568627451" d="M 191.5 219 L 192.5 221 L 191.5 219 Z " /><path fill="rgb(0,0,0)" stroke="rgb(0,0,0)" stroke-width="1" opacity="0.7803921568627451" d="M 16.5 222 L 15.5 224 L 16.5 222 Z " /><path fill="rgb(0,0,0)" stroke="rgb(0,0,0)" stroke-width="1" opacity="0.7803921568627451" d="M 193.5 222 L 194.5 224 L 193.5 222 Z " /><path fill="rgb(0,0,0)" stroke="rgb(0,0,0)" stroke-width="1" opacity="0.7803921568627451" d="M 53.5 223 L 49.5 228 L 53.5 223 Z " /><path fill="rgb(0,0,0)" stroke="rgb(0,0,0)" stroke-width="1" opacity="0.7803921568627451" d="M 156.5 223 L 160.5 228 L 156.5 223 Z " /><path fill="rgb(0,0,0)" stroke="rgb(0,0,0)" stroke-width="1" opacity="0.7803921568627451" d="M 398.5 228 L 397.5 230 L 398.5 228 Z " /><path fill="rgb(0,0,0)" stroke="rgb(0,0,0)" stroke-width="1" opacity="0.7803921568627451" d="M 382.5 229 L 383.5 231 L 382.5 229 Z " /><path fill="rgb(0,0,0)" stroke="rgb(0,0,0)" stroke-width="1" opacity="0.7803921568627451" d="M 11.5 231 L 11 232.5 L 10.5 234 L 10 232.5 L 11.5 231 Z " /><path fill="rgb(0,0,0)" stroke="rgb(0,0,0)" stroke-width="1" opacity="0.7803921568627451" d="M 46.5 231 L 44.5 234 L 46.5 231 Z " /><path fill="rgb(0,0,0)" stroke="rgb(0,0,0)" stroke-width="1" opacity="0.7803921568627451" d="M 163.5 231 L 164.5 233 L 163.5 231 Z " /><path fill="rgb(0,0,0)" stroke="rgb(0,0,0)" stroke-width="1" opacity="0.7803921568627451" d="M 198.5 231 L 200 233.5 L 199 233.5 L 198.5 231 Z " /><path fill="rgb(0,0,0)" stroke="rgb(0,0,0)" stroke-width="1" opacity="0.7803921568627451" d="M 101.5 233 L 109 233.5 L 101.5 234 L 101.5 233 Z " /><path fill="rgb(0,0,0)" stroke="rgb(0,0,0)" stroke-width="1" opacity="0.7803921568627451" d="M 43.5 235 L 42.5 237 L 43.5 235 Z " /><path fill="rgb(0,0,0)" stroke="rgb(0,0,0)" stroke-width="1" opacity="0.7803921568627451" d="M 166.5 235 L 167.5 237 L 166.5 235 Z " /><path fill="rgb(0,0,0)" stroke="rgb(0,0,0)" stroke-width="1" opacity="0.7803921568627451" d="M 41.5 238 L 40.5 240 L 41.5 238 Z " /><path fill="rgb(0,0,0)" stroke="rgb(0,0,0)" stroke-width="1" opacity="0.7803921568627451" d="M 168.5 238 L 169.5 240 L 168.5 238 Z " /><path fill="rgb(0,0,0)" stroke="rgb(0,0,0)" stroke-width="1" opacity="0.7803921568627451" d="M 82.5 239 L 81.5 241 L 82.5 239 Z " /><path fill="rgb(0,0,0)" stroke="rgb(0,0,0)" stroke-width="1" opacity="0.7803921568627451" d="M 127.5 239 L 128.5 241 L 127.5 239 Z " /><path fill="rgb(0,0,0)" stroke="rgb(0,0,0)" stroke-width="1" opacity="0.7803921568627451" d="M 392.5 239 L 391.5 241 L 392.5 239 Z " /><path fill="rgb(0,0,0)" stroke="rgb(0,0,0)" stroke-width="1" opacity="0.7803921568627451" d="M 388.5 240 L 390.5 243 L 388.5 240 Z " /><path fill="rgb(0,0,0)" stroke="rgb(0,0,0)" stroke-width="1" opacity="0.7803921568627451" d="M 79.5 241 L 78.5 243 L 79.5 241 Z " /><path fill="rgb(0,0,0)" stroke="rgb(0,0,0)" stroke-width="1" opacity="0.7803921568627451" d="M 130.5 241 L 131.5 243 L 130.5 241 Z " /><path fill="rgb(0,0,0)" stroke="rgb(0,0,0)" stroke-width="1" opacity="0.7803921568627451" d="M 75.5 244 L 70.5 250 L 75.5 244 Z " /><path fill="rgb(0,0,0)" stroke="rgb(0,0,0)" stroke-width="1" opacity="0.7803921568627451" d="M 134.5 244 L 139.5 250 L 134.5 244 Z " /><path fill="rgb(0,0,0)" stroke="rgb(0,0,0)" stroke-width="1" opacity="0.7803921568627451" d="M 140.5 251 L 142.5 254 L 140.5 251 Z " /><path fill="rgb(0,0,0)" stroke="rgb(0,0,0)" stroke-width="1" opacity="0.7803921568627451" d="M 68.5 252 L 67.5 254 L 68.5 252 Z " /><path fill="rgb(0,0,0)" stroke="rgb(0,0,0)" stroke-width="1" opacity="0.7803921568627451" d="M 1.5 260 L 2 262.5 L 1 262.5 L 1.5 260 Z " /><path fill="rgb(0,0,0)" stroke="rgb(0,0,0)" stroke-width="1" opacity="0.7803921568627451" d="M 208.5 260 L 209 262.5 L 208 262.5 L 208.5 260 Z " /><path fill="rgb(0,0,0)" stroke="rgb(0,0,0)" stroke-width="1" opacity="0.7803921568627451" d="M 101.5 263 L 109 263.5 L 101.5 264 L 101.5 263 Z " /><path fill="rgb(0,0,0)" stroke="rgb(0,0,0)" stroke-width="1" opacity="0.7803921568627451" d="M 95.5 266 L 93.5 269 L 95.5 266 Z " /><path fill="rgb(0,0,0)" stroke="rgb(0,0,0)" stroke-width="1" opacity="0.7803921568627451" d="M 114.5 266 L 116.5 269 L 114.5 266 Z " /><path fill="rgb(0,0,0)" stroke="rgb(0,0,0)" stroke-width="1" opacity="0.7803921568627451" d="M 0.5 267 L 1 273.5 L 0 273.5 L 0.5 267 Z " /><path fill="rgb(0,0,0)" stroke="rgb(0,0,0)" stroke-width="1" opacity="0.7803921568627451" d="M 30.5 267 L 31 270.5 L 30 270.5 L 30.5 267 Z " /><path fill="rgb(0,0,0)" stroke="rgb(0,0,0)" stroke-width="1" opacity="0.7803921568627451" d="M 179.5 267 L 180 270.5 L 179 270.5 L 179.5 267 Z " /><path fill="rgb(0,0,0)" stroke="rgb(0,0,0)" stroke-width="1" opacity="0.7803921568627451" d="M 209.5 267 L 210 273.5 L 209 273.5 L 209.5 267 Z " /><path fill="rgb(0,0,0)" stroke="rgb(0,0,0)" stroke-width="1" opacity="0.7803921568627451" d="M 60.5 271 L 61 275.5 L 60 275.5 L 60.5 271 Z " /><path fill="rgb(0,0,0)" stroke="rgb(0,0,0)" stroke-width="1" opacity="0.7803921568627451" d="M 149.5 271 L 150 275.5 L 149 275.5 L 149.5 271 Z " /><path fill="rgb(0,0,0)" stroke="rgb(0,0,0)" stroke-width="1" opacity="0.7803921568627451" d="M 60.5 359 L 150 359.5 L 60.5 360 L 60.5 359 Z " /><path fill="rgb(0,0,0)" stroke="rgb(0,0,0)" stroke-width="1" opacity="0.7803921568627451" d="M 90.5 419 L 120 419.5 L 90.5 420 L 90.5 419 Z " /><path fill="rgb(0,0,0)" stroke="rgb(0,0,0)" stroke-width="1" opacity="0" d="M 0 0 L 390 0.5 L 352 70.5 L 345.5 80 L 269 121.5 L 271.5 124 L 344.5 163 L 349 167.5 L 388 240.5 L 390.5 243 L 432 166.5 L 434.5 164 L 511.5 122 L 512 512 L 326 512 L 326 188.5 L 325.5 188 L 236 188 L 236 511.5 L 235.5 512 L 210 512 L 210 267.5 L 207 251.5 L 200 232.5 Q 191.1 214.9 177.5 202 Q 161.3 186.2 137.5 178 L 120.5 174 L 99.5 173 L 98.5 174 L 89.5 174 L 79.5 176 L 64.5 181 Q 43.1 190.6 28 206.5 Q 17.4 217.9 10 232.5 L 3 251.5 L 0.5 267 L 0 0 Z " /><path fill="rgb(0,0,0)" stroke="rgb(0,0,0)" stroke-width="1" opacity="0" d="M 391 0 L 512 0 L 512 121 L 433 79 L 391 0 Z " /><path fill="rgb(0,0,0)" stroke="rgb(0,0,0)" stroke-width="1" opacity="0" d="M 390.5 63 L 412.5 102 L 449 121.5 L 411 142 L 390.5 180 L 368.5 142 L 332 121.5 L 370 101 L 390.5 63 Z " /><path fill="rgb(0,0,0)" stroke="rgb(0,0,0)" stroke-width="1" opacity="0" d="M 93.5 204 L 116.5 204 L 131.5 208 Q 150.9 215.6 163 230.5 L 174 248.5 L 177 256.5 L 180 271.5 L 180 482 L 150.5 482 L 150 481.5 L 150 390 L 60 390 L 60 481.5 L 59.5 482 L 30 482 L 30 271.5 L 33 256.5 L 40 240.5 Q 46.7 229.2 56.5 221 Q 70.6 208.1 93.5 204 Z M 102 233 L 89 236 L 76 244 Q 64 254 60 272 L 60 360 L 150 360 L 150 272 L 148 264 L 140 250 Q 133 241 122 236 L 109 233 L 102 233 Z " /><path fill="rgb(0,0,0)" stroke="rgb(0,0,0)" stroke-width="1" opacity="0" d="M 266 219 L 295.5 219 L 296 219.5 L 296 482 L 266.5 482 L 266 481.5 L 266 219 Z " /><path fill="rgb(0,0,0)" stroke="rgb(0,0,0)" stroke-width="1" opacity="0" d="M 100.5 264 L 109.5 264 L 118 270.5 L 120 275.5 L 120 330 L 90 330 L 90 275.5 Q 91.5 269 96.5 266 L 100.5 264 Z " /><path fill="rgb(0,0,0)" stroke="rgb(0,0,0)" stroke-width="1" opacity="0" d="M 90 420 L 119.5 420 L 120 420.5 L 120 512 L 90.5 512 L 90 511.5 L 90 420 Z " /><path fill="rgb(0,0,0)" stroke="rgb(0,0,0)" stroke-width="1" opacity="1" d="M 390.5 1 L 429 72.5 L 434.5 80 L 511 121.5 L 432 165.5 L 390.5 242 L 388 239.5 L 349 166.5 L 345.5 163 L 272.5 124 L 270 121.5 L 348 78.5 L 390.5 1 Z M 391 62 L 370 100 L 331 122 L 368 142 L 372 148 L 388 179 L 391 181 L 411 144 L 450 122 L 411 101 L 391 62 Z " /><path fill="rgb(0,0,0)" stroke="rgb(0,0,0)" stroke-width="1" opacity="1" d="M 93.5 174 L 116.5 174 L 117.5 175 L 128.5 176 L 141.5 180 Q 167.4 190.1 184 209.5 Q 195.1 221.9 202 238.5 L 208 257.5 L 209 273.5 L 210 274.5 L 210 512 L 120 512 L 120 419.5 L 119.5 419 L 90 419 L 90 512 L 0 512 L 0 274.5 L 1 273.5 L 1 263.5 Q 9.1 221.6 36.5 199 Q 48.2 188.7 63.5 182 L 81.5 176 L 92.5 175 L 93.5 174 Z M 98 203 L 83 206 L 73 210 L 54 223 Q 35 239 30 268 L 30 482 L 60 482 L 60 482 L 60 390 L 150 390 L 150 482 L 151 482 L 180 482 L 180 268 Q 176 242 161 228 Q 149 214 131 207 L 113 203 L 98 203 Z " /><path fill="rgb(0,0,0)" stroke="rgb(0,0,0)" stroke-width="1" opacity="1" d="M 237 189 L 325.5 189 L 326 189.5 L 326 512 L 237.5 512 L 237 511.5 L 237 189 Z M 266 218 L 266 482 L 267 482 L 297 482 L 297 219 L 297 218 L 266 218 Z " /><path fill="rgb(0,0,0)" stroke="rgb(0,0,0)" stroke-width="1" opacity="1" d="M 97.5 234 L 112.5 234 L 122.5 237 Q 133.2 241.8 140 250.5 L 147 262.5 L 150 276.5 L 150 359 L 60 359 L 60 276.5 L 62 265.5 L 67 254.5 L 77.5 243 Q 85.4 236.4 97.5 234 Z M 102 263 L 96 266 L 90 274 L 90 330 L 120 330 L 120 275 L 117 269 L 109 263 L 102 263 Z " /></svg>